<svg width="312" height="131" viewBox="0 0 312 131" fill="none" xmlns="http://www.w3.org/2000/svg">
<path d="M39.75 18.04C49.734 18.04 57.8833 18.9787 64.198 20.856C70.598 22.7333 75.5473 26.2747 79.046 31.48C82.63 36.6853 84.422 44.152 84.422 53.88C84.422 64.2907 82.5447 72.2267 78.79 77.688C75.0353 83.064 70.0007 86.648 63.686 88.44C57.3713 90.1467 49.3927 91 39.75 91H14.15V18.04H39.75ZM56.902 73.592C57.926 72.568 58.6513 69.9227 59.078 65.656C59.5047 61.3893 59.718 57.464 59.718 53.88C59.718 49.3573 59.3767 45.7733 58.694 43.128C58.0967 40.3973 56.9873 38.2213 55.366 36.6C52.806 33.784 48.4113 32.376 42.182 32.376C41.0727 32.376 39.4087 32.4613 37.19 32.632V75.128C38.6407 75.2987 40.902 75.384 43.974 75.384C47.1313 75.384 49.9047 75.256 52.294 75C54.7687 74.6587 56.3047 74.1893 56.902 73.592Z" fill="#E87F08"/>
<path d="M105.392 55.416C108.635 55.416 111.408 56.0347 113.712 57.272C116.059 58.5093 117.872 60.3013 119.152 62.648C120.432 64.9947 121.072 67.8747 121.072 71.288V75.896H98.544C98.6293 78.584 99.4187 80.696 100.912 82.232C102.448 83.768 104.56 84.536 107.248 84.536C109.509 84.536 111.557 84.3227 113.392 83.896C115.227 83.4267 117.125 82.7227 119.088 81.784V89.144C117.381 89.9973 115.568 90.616 113.648 91C111.771 91.4267 109.488 91.64 106.8 91.64C103.301 91.64 100.208 91 97.52 89.72C94.832 88.3973 92.72 86.4133 91.184 83.768C89.648 81.1227 88.88 77.7947 88.88 73.784C88.88 69.688 89.5627 66.296 90.928 63.608C92.336 60.8773 94.2773 58.8293 96.752 57.464C99.2267 56.0987 102.107 55.416 105.392 55.416ZM105.456 62.2C103.621 62.2 102.085 62.7973 100.848 63.992C99.6533 65.1867 98.9493 67.0427 98.736 69.56H112.112C112.112 68.152 111.856 66.8933 111.344 65.784C110.875 64.6747 110.149 63.8 109.168 63.16C108.187 62.52 106.949 62.2 105.456 62.2ZM135.875 91L122.562 56.056H132.547L139.267 75.96C139.523 76.728 139.736 77.5387 139.907 78.392C140.12 79.2453 140.269 80.0773 140.355 80.888C140.483 81.6987 140.568 82.4453 140.611 83.128H140.867C140.909 82.4027 140.995 81.6347 141.123 80.824C141.251 80.0133 141.4 79.2027 141.571 78.392C141.784 77.5387 142.019 76.728 142.275 75.96L148.995 56.056H158.979L145.667 91H135.875ZM191.704 78.328C191.704 81.016 191.043 83.3627 189.72 85.368C188.397 87.3733 186.477 88.9307 183.96 90.04C181.485 91.1067 178.456 91.64 174.872 91.64C173.293 91.64 171.736 91.5333 170.2 91.32C168.707 91.1067 167.256 90.808 165.848 90.424C164.483 89.9973 163.181 89.4853 161.944 88.888V79.864C164.12 80.8027 166.36 81.6773 168.664 82.488C171.011 83.256 173.336 83.64 175.64 83.64C177.219 83.64 178.477 83.4267 179.416 83C180.397 82.5733 181.101 81.9973 181.528 81.272C181.997 80.5467 182.232 79.7147 182.232 78.776C182.232 77.624 181.827 76.6427 181.016 75.832C180.248 75.0213 179.203 74.2747 177.88 73.592C176.557 72.8667 175.043 72.0987 173.336 71.288C172.269 70.776 171.117 70.1787 169.88 69.496C168.643 68.7707 167.448 67.896 166.296 66.872C165.187 65.8053 164.269 64.5253 163.544 63.032C162.819 61.5387 162.456 59.7467 162.456 57.656C162.456 54.9253 163.075 52.6 164.312 50.68C165.592 48.7173 167.384 47.224 169.688 46.2C172.035 45.176 174.787 44.664 177.944 44.664C180.333 44.664 182.595 44.9413 184.728 45.496C186.904 46.0507 189.165 46.84 191.512 47.864L188.376 55.416C186.285 54.5627 184.408 53.9013 182.744 53.432C181.08 52.9627 179.373 52.728 177.624 52.728C176.429 52.728 175.405 52.92 174.552 53.304C173.699 53.688 173.037 54.2213 172.568 54.904C172.141 55.5867 171.928 56.3973 171.928 57.336C171.928 58.4027 172.248 59.32 172.888 60.088C173.528 60.8133 174.488 61.5173 175.768 62.2C177.048 62.8827 178.648 63.6933 180.568 64.632C182.915 65.7413 184.899 66.8933 186.52 68.088C188.184 69.2827 189.464 70.6907 190.36 72.312C191.256 73.9333 191.704 75.9387 191.704 78.328ZM218.698 55.416C222.623 55.416 225.802 56.952 228.234 60.024C230.666 63.0533 231.882 67.5333 231.882 73.464C231.882 77.432 231.306 80.7813 230.154 83.512C229.002 86.2 227.423 88.2267 225.418 89.592C223.413 90.9573 221.087 91.64 218.442 91.64C216.778 91.64 215.327 91.4267 214.09 91C212.895 90.5733 211.871 90.0187 211.018 89.336C210.165 88.6533 209.418 87.928 208.778 87.16H208.266C208.437 87.9707 208.565 88.824 208.65 89.72C208.735 90.5733 208.778 91.4267 208.778 92.28V106.36H199.242V56.056H206.986L208.33 60.6H208.778C209.418 59.6613 210.186 58.808 211.082 58.04C211.978 57.2293 213.045 56.5893 214.282 56.12C215.562 55.6507 217.034 55.416 218.698 55.416ZM215.626 63.032C213.962 63.032 212.639 63.3733 211.658 64.056C210.677 64.7387 209.951 65.784 209.482 67.192C209.055 68.5573 208.821 70.2853 208.778 72.376V73.4C208.778 75.6613 208.991 77.5813 209.418 79.16C209.845 80.696 210.57 81.8693 211.594 82.68C212.618 83.4907 214.005 83.896 215.754 83.896C217.205 83.896 218.399 83.4907 219.338 82.68C220.277 81.8693 220.981 80.6747 221.45 79.096C221.919 77.5173 222.154 75.5973 222.154 73.336C222.154 69.9227 221.621 67.3627 220.554 65.656C219.53 63.9067 217.887 63.032 215.626 63.032ZM271.486 73.464C271.486 76.3653 271.081 78.9467 270.27 81.208C269.502 83.4693 268.371 85.3893 266.878 86.968C265.427 88.504 263.657 89.6773 261.566 90.488C259.475 91.256 257.107 91.64 254.462 91.64C252.03 91.64 249.769 91.256 247.678 90.488C245.63 89.6773 243.859 88.504 242.366 86.968C240.873 85.3893 239.699 83.4693 238.846 81.208C238.035 78.9467 237.63 76.3653 237.63 73.464C237.63 69.5813 238.313 66.3173 239.678 63.672C241.043 60.984 243.006 58.936 245.566 57.528C248.126 56.12 251.155 55.416 254.654 55.416C257.939 55.416 260.841 56.12 263.358 57.528C265.875 58.936 267.859 60.984 269.31 63.672C270.761 66.3173 271.486 69.5813 271.486 73.464ZM247.358 73.464C247.358 75.768 247.593 77.7093 248.062 79.288C248.574 80.824 249.363 81.9973 250.43 82.808C251.497 83.576 252.883 83.96 254.59 83.96C256.297 83.96 257.662 83.576 258.686 82.808C259.753 81.9973 260.521 80.824 260.99 79.288C261.502 77.7093 261.758 75.768 261.758 73.464C261.758 71.16 261.502 69.24 260.99 67.704C260.521 66.168 259.753 65.016 258.686 64.248C257.619 63.48 256.233 63.096 254.526 63.096C252.009 63.096 250.174 63.9707 249.022 65.72C247.913 67.4267 247.358 70.008 247.358 73.464ZM294.087 84.024C295.154 84.024 296.178 83.9173 297.159 83.704C298.14 83.4907 299.122 83.2347 300.103 82.936V90.04C299.079 90.4667 297.799 90.8293 296.263 91.128C294.77 91.4693 293.127 91.64 291.335 91.64C289.244 91.64 287.367 91.2987 285.703 90.616C284.082 89.9333 282.78 88.76 281.799 87.096C280.86 85.3893 280.391 83.0427 280.391 80.056V63.224H275.847V59.192L281.095 55.992L283.847 48.632H289.927V56.056H299.719V63.224H289.927V80.056C289.927 81.3787 290.311 82.3813 291.079 83.064C291.847 83.704 292.85 84.024 294.087 84.024Z" fill="black"/>
</svg>
